# xmcd
#
# Track frame offsets:
# 150
# 15700
# 32700
# 53532
# 70770
# 85942
# 102162
# 118487
# 137877
# 151630
# 167625
# 182910
# 197520
#
# Disc length: 2924 seconds
#
#
# Revision: 0
# Processed by: cddbd v1.5.2PL0 Copyright (c) Steve Scherf et al.
# Submitted via: FreeRIP 2.95 
#
DISCID=a60b6a0d
DTITLE=Matogrosso e Mathias - Pele de maçã
DYEAR=2007
DGENRE=Country - Sertanejo
TTITLE0=Pele de maçã
TTITLE1=Não jogue fora o amor que eu te dei
TTITLE2=Faz de conta
TTITLE3=Saudade de mim
TTITLE4=Qual foi o meu pecado
TTITLE5=Firma o gorpe
TTITLE6=Eu e a madrugada
TTITLE7=Maia dúzia de palavras
TTITLE8=O sonhador
TTITLE9=Milionário da mansão
TTITLE10=Moda do genro
TTITLE11=La féria de las flores
TTITLE12=A gente nunca esquece
EXTD=
EXTT0=
EXTT1=
EXTT2=
EXTT3=
EXTT4=
EXTT5=
EXTT6=
EXTT7=
EXTT8=
EXTT9=
EXTT10=
EXTT11=
EXTT12=
PLAYORDER=
